<mxfile host="65bd71144e">
    <diagram id="-BDTeBijwdTVi4fhLwuw" name="Page-1">
        <mxGraphModel dx="646" dy="846" grid="1" gridSize="10" guides="1" tooltips="1" connect="1" arrows="1" fold="1" page="1" pageScale="1" pageWidth="827" pageHeight="1169" math="0" shadow="0">
            <root>
                <mxCell id="0"/>
                <mxCell id="1" parent="0"/>
                <mxCell id="tZaITLDV00XNWz6PWwAZ-3" value="" style="edgeStyle=orthogonalEdgeStyle;rounded=0;orthogonalLoop=1;jettySize=auto;html=1;" parent="1" source="tZaITLDV00XNWz6PWwAZ-1" target="tZaITLDV00XNWz6PWwAZ-2" edge="1">
                    <mxGeometry relative="1" as="geometry"/>
                </mxCell>
                <mxCell id="tZaITLDV00XNWz6PWwAZ-1" value="&lt;font color=&quot;#000000&quot;&gt;Start&lt;/font&gt;" style="rounded=1;whiteSpace=wrap;html=1;fillColor=#dae8fc;strokeColor=#6c8ebf;" parent="1" vertex="1">
                    <mxGeometry x="320" y="180" width="120" height="60" as="geometry"/>
                </mxCell>
                <mxCell id="tZaITLDV00XNWz6PWwAZ-9" style="edgeStyle=orthogonalEdgeStyle;rounded=0;orthogonalLoop=1;jettySize=auto;html=1;" parent="1" source="tZaITLDV00XNWz6PWwAZ-2" target="tZaITLDV00XNWz6PWwAZ-7" edge="1">
                    <mxGeometry relative="1" as="geometry"/>
                </mxCell>
                <mxCell id="tZaITLDV00XNWz6PWwAZ-16" value="" style="edgeStyle=orthogonalEdgeStyle;rounded=0;orthogonalLoop=1;jettySize=auto;html=1;" parent="1" source="tZaITLDV00XNWz6PWwAZ-2" target="tZaITLDV00XNWz6PWwAZ-6" edge="1">
                    <mxGeometry relative="1" as="geometry"/>
                </mxCell>
                <mxCell id="tZaITLDV00XNWz6PWwAZ-2" value="&lt;font color=&quot;#000000&quot;&gt;Ist der Ordner leer&amp;nbsp;&lt;/font&gt;" style="rounded=1;whiteSpace=wrap;html=1;fillColor=#d5e8d4;strokeColor=#82b366;" parent="1" vertex="1">
                    <mxGeometry x="320" y="320" width="120" height="60" as="geometry"/>
                </mxCell>
                <mxCell id="tZaITLDV00XNWz6PWwAZ-5" value="&lt;span&gt;Cache Files &amp;amp; leere Ordner löschen&lt;/span&gt;" style="rounded=0;whiteSpace=wrap;html=1;" parent="1" vertex="1">
                    <mxGeometry x="210" y="50" width="340" height="60" as="geometry"/>
                </mxCell>
                <mxCell id="tZaITLDV00XNWz6PWwAZ-15" style="edgeStyle=orthogonalEdgeStyle;rounded=0;orthogonalLoop=1;jettySize=auto;html=1;" parent="1" source="tZaITLDV00XNWz6PWwAZ-6" target="tZaITLDV00XNWz6PWwAZ-14" edge="1">
                    <mxGeometry relative="1" as="geometry"/>
                </mxCell>
                <mxCell id="tZaITLDV00XNWz6PWwAZ-6" value="&lt;font color=&quot;#000000&quot;&gt;Ja&lt;/font&gt;" style="rhombus;whiteSpace=wrap;html=1;fillColor=#f8cecc;strokeColor=#b85450;" parent="1" vertex="1">
                    <mxGeometry x="310" y="440" width="140" height="80" as="geometry"/>
                </mxCell>
                <mxCell id="tZaITLDV00XNWz6PWwAZ-10" style="edgeStyle=orthogonalEdgeStyle;rounded=0;orthogonalLoop=1;jettySize=auto;html=1;entryX=0.5;entryY=0;entryDx=0;entryDy=0;" parent="1" source="tZaITLDV00XNWz6PWwAZ-7" target="tZaITLDV00XNWz6PWwAZ-8" edge="1">
                    <mxGeometry relative="1" as="geometry"/>
                </mxCell>
                <mxCell id="tZaITLDV00XNWz6PWwAZ-7" value="&lt;font color=&quot;#000000&quot;&gt;Nein&lt;/font&gt;" style="rhombus;whiteSpace=wrap;html=1;fillColor=#f8cecc;strokeColor=#b85450;" parent="1" vertex="1">
                    <mxGeometry x="540" y="310" width="140" height="80" as="geometry"/>
                </mxCell>
                <mxCell id="tZaITLDV00XNWz6PWwAZ-8" value="&lt;font color=&quot;#000000&quot;&gt;Inhalt löschen&lt;/font&gt;" style="rounded=1;whiteSpace=wrap;html=1;fillColor=#fff2cc;strokeColor=#d6b656;" parent="1" vertex="1">
                    <mxGeometry x="550" y="450" width="120" height="60" as="geometry"/>
                </mxCell>
                <mxCell id="tZaITLDV00XNWz6PWwAZ-14" value="&lt;font color=&quot;#000000&quot;&gt;lassen&lt;/font&gt;" style="rounded=1;whiteSpace=wrap;html=1;fillColor=#fff2cc;strokeColor=#d6b656;" parent="1" vertex="1">
                    <mxGeometry x="320" y="570" width="120" height="60" as="geometry"/>
                </mxCell>
                <mxCell id="tZaITLDV00XNWz6PWwAZ-17" value="&lt;span&gt;Cache Files&lt;/span&gt;" style="rounded=0;whiteSpace=wrap;html=1;" parent="1" vertex="1">
                    <mxGeometry x="275" y="120" width="210" height="40" as="geometry"/>
                </mxCell>
                <mxCell id="tZaITLDV00XNWz6PWwAZ-18" value="&lt;span&gt;Leere Ordner löschen&lt;/span&gt;" style="rounded=0;whiteSpace=wrap;html=1;" parent="1" vertex="1">
                    <mxGeometry x="210" y="670" width="340" height="60" as="geometry"/>
                </mxCell>
                <mxCell id="tZaITLDV00XNWz6PWwAZ-26" value="" style="edgeStyle=orthogonalEdgeStyle;rounded=0;orthogonalLoop=1;jettySize=auto;html=1;" parent="1" source="tZaITLDV00XNWz6PWwAZ-27" target="tZaITLDV00XNWz6PWwAZ-29" edge="1">
                    <mxGeometry relative="1" as="geometry"/>
                </mxCell>
                <mxCell id="tZaITLDV00XNWz6PWwAZ-27" value="&lt;font color=&quot;#000000&quot;&gt;Start&lt;/font&gt;" style="rounded=1;whiteSpace=wrap;html=1;fillColor=#dae8fc;strokeColor=#6c8ebf;" parent="1" vertex="1">
                    <mxGeometry x="310" y="780" width="120" height="60" as="geometry"/>
                </mxCell>
                <mxCell id="tZaITLDV00XNWz6PWwAZ-28" style="edgeStyle=orthogonalEdgeStyle;rounded=0;orthogonalLoop=1;jettySize=auto;html=1;" parent="1" source="tZaITLDV00XNWz6PWwAZ-29" target="tZaITLDV00XNWz6PWwAZ-32" edge="1">
                    <mxGeometry relative="1" as="geometry"/>
                </mxCell>
                <mxCell id="tZaITLDV00XNWz6PWwAZ-35" style="edgeStyle=orthogonalEdgeStyle;rounded=0;orthogonalLoop=1;jettySize=auto;html=1;" parent="1" source="tZaITLDV00XNWz6PWwAZ-29" target="tZaITLDV00XNWz6PWwAZ-31" edge="1">
                    <mxGeometry relative="1" as="geometry"/>
                </mxCell>
                <mxCell id="tZaITLDV00XNWz6PWwAZ-29" value="&lt;font color=&quot;#000000&quot;&gt;Ist der Ordner leer&amp;nbsp;&lt;/font&gt;" style="rounded=1;whiteSpace=wrap;html=1;fillColor=#d5e8d4;strokeColor=#82b366;" parent="1" vertex="1">
                    <mxGeometry x="310" y="920" width="120" height="60" as="geometry"/>
                </mxCell>
                <mxCell id="tZaITLDV00XNWz6PWwAZ-30" style="edgeStyle=orthogonalEdgeStyle;rounded=0;orthogonalLoop=1;jettySize=auto;html=1;" parent="1" source="tZaITLDV00XNWz6PWwAZ-31" target="tZaITLDV00XNWz6PWwAZ-34" edge="1">
                    <mxGeometry relative="1" as="geometry"/>
                </mxCell>
                <mxCell id="tZaITLDV00XNWz6PWwAZ-31" value="&lt;font color=&quot;#000000&quot;&gt;Ja&lt;/font&gt;" style="rhombus;whiteSpace=wrap;html=1;fillColor=#f8cecc;strokeColor=#b85450;" parent="1" vertex="1">
                    <mxGeometry x="300" y="1040" width="140" height="80" as="geometry"/>
                </mxCell>
                <mxCell id="tZaITLDV00XNWz6PWwAZ-36" style="edgeStyle=orthogonalEdgeStyle;rounded=0;orthogonalLoop=1;jettySize=auto;html=1;entryX=0.5;entryY=0;entryDx=0;entryDy=0;" parent="1" source="tZaITLDV00XNWz6PWwAZ-32" target="tZaITLDV00XNWz6PWwAZ-33" edge="1">
                    <mxGeometry relative="1" as="geometry"/>
                </mxCell>
                <mxCell id="tZaITLDV00XNWz6PWwAZ-32" value="&lt;font color=&quot;#000000&quot;&gt;Nein&lt;/font&gt;" style="rhombus;whiteSpace=wrap;html=1;fillColor=#f8cecc;strokeColor=#b85450;" parent="1" vertex="1">
                    <mxGeometry x="530" y="910" width="140" height="80" as="geometry"/>
                </mxCell>
                <mxCell id="tZaITLDV00XNWz6PWwAZ-33" value="&lt;font color=&quot;#000000&quot;&gt;Inhalt nicht löschen&lt;/font&gt;" style="rounded=1;whiteSpace=wrap;html=1;fillColor=#fff2cc;strokeColor=#d6b656;" parent="1" vertex="1">
                    <mxGeometry x="540" y="1050" width="120" height="60" as="geometry"/>
                </mxCell>
                <mxCell id="tZaITLDV00XNWz6PWwAZ-34" value="&lt;font color=&quot;#000000&quot;&gt;Ordner löschen&lt;/font&gt;" style="rounded=1;whiteSpace=wrap;html=1;fillColor=#fff2cc;strokeColor=#d6b656;" parent="1" vertex="1">
                    <mxGeometry x="310" y="1170" width="120" height="60" as="geometry"/>
                </mxCell>
                <mxCell id="2" value="" style="shape=image;verticalLabelPosition=bottom;labelBackgroundColor=#ffffff;verticalAlign=top;aspect=fixed;imageAspect=0;image=data:image/png,iVBORw0KGgoAAAANSUhEUgAAAKMAAABTCAYAAADz/reZAAABgGlDQ1BJQ0MgUHJvZmlsZQAAKJFjYGCqSCwoyGFhYGDIzSspCnJ3UoiIjFJgv8PAzcDDIMRgxSCemFxc4BgQ4MOAE3y7xsAIoi/rgsxqOqd2d+pGwehjat+yq+1cc3DrAwPulNTiZAYGRg4gOyWlODkXyAbp0UsuKCoBsucA2brlJQUg9hkgW6QI6EAg+wGInQ5hfwGxk8BsJg6wmpAgZyBbBsgWSIKwdUDsdAjbBsROzkhMAbJB/tKBuAEMuIJdFAzNDXx1HQk4nFSQm1MKswMUWjypeaHBQFoIiGUYghlcGBQYDBnMGQwYfBl0GYCWl6RWlIAUO+cXVBZlpmeUKDgCQzdVwTk/t6C0JLVIR8EzL1lPR8HIwNAApA4UbxDjPweBbWAUO48Qy5rMwGDxhoGBuQohlrKcgWGLPQODeDBCTH020EnvGRh2hBckFiXCHc/4jYUQvzjN2AjC5nFiYGC99///ZzUGBvZJDAx/J/7//3vR//9/FwPtv8PAcCAHALbUa30s2MP4AAAAVmVYSWZNTQAqAAAACAABh2kABAAAAAEAAAAaAAAAAAADkoYABwAAABIAAABEoAIABAAAAAEAAACjoAMABAAAAAEAAABTAAAAAEFTQ0lJAAAAU2NyZWVuc2hvdA26qrMAAAHVaVRYdFhNTDpjb20uYWRvYmUueG1wAAAAAAA8eDp4bXBtZXRhIHhtbG5zOng9ImFkb2JlOm5zOm1ldGEvIiB4OnhtcHRrPSJYTVAgQ29yZSA2LjAuMCI+CiAgIDxyZGY6UkRGIHhtbG5zOnJkZj0iaHR0cDovL3d3dy53My5vcmcvMTk5OS8wMi8yMi1yZGYtc3ludGF4LW5zIyI+CiAgICAgIDxyZGY6RGVzY3JpcHRpb24gcmRmOmFib3V0PSIiCiAgICAgICAgICAgIHhtbG5zOmV4aWY9Imh0dHA6Ly9ucy5hZG9iZS5jb20vZXhpZi8xLjAvIj4KICAgICAgICAgPGV4aWY6UGl4ZWxZRGltZW5zaW9uPjgzPC9leGlmOlBpeGVsWURpbWVuc2lvbj4KICAgICAgICAgPGV4aWY6UGl4ZWxYRGltZW5zaW9uPjE2MzwvZXhpZjpQaXhlbFhEaW1lbnNpb24+CiAgICAgICAgIDxleGlmOlVzZXJDb21tZW50PlNjcmVlbnNob3Q8L2V4aWY6VXNlckNvbW1lbnQ+CiAgICAgIDwvcmRmOkRlc2NyaXB0aW9uPgogICA8L3JkZjpSREY+CjwveDp4bXBtZXRhPgplBiL1AAAndUlEQVR4Ae19e7Be1XXfulfiKfGwxSvuOOAYi7clAcIEHNcOrjOTzBSEwEYSErROCA3GExtjJPEGPQBP7H/qxC5Px4Ag6JEYGrc0dGzPxI+4vEGC2LjjNrYxbeqZgN2mte7X3++31tp7n+/7dHUlXQiIe6R79trrvX5nnX0e97v3jpiN9MzwH1uv56No7EZI5EYtMJJH1ZGY0GpEPjoMdwv3PUjTzt25RboeNg5ogDEVf/fGf9Q7ZrAdRprGlBTd1Gko9nBszm+kKdPYNGKasKu0JYNZVJqiqfhdPAh+oiboEmNi5QztO7I3GP5oRt+alvG2iGWvf7Ucpk9eFzrAI0aFrzMNNlfMNJyK34+Vz99M+Jdm7Oks8pZqYRnJazG6pvKjJZsOrDJn+uIHOnSqnJ3rTPG6AjmuLMScil/ArrgUVhC5OnL6xsWfC5KukCx0TE0S3ZOtx2ks930Sld25VwwOIelsMsSuNFZHqnvVtulcGtBPxX/T4I8jzk5jo2A/5ndu6j12RPRDt3WGz9gz3GTSmTi/3Q+IyWgafip+oPUmw795gPHKtdKRLF0VrdMdSm852y/hnSZqgYRS+4DCGC4OribOmYoPsAiF4CC6jnDfsFviz5KjWl8Zo0tKsSSo4K3SYU940rHPaMWhS7XvKFb322BXhe1QHXtOuE3Fdxzi6AqjDlAhxrANdlXYDtWx54TbEPz1AFP4hXD93JfXLHCUvlK2vbEm0qyCnTg+iav0UHdT8QP13Rx/dgJK9KF9jaAnXvWJN0t/l6xZu8Ze+P4LXXZ2XmAnv3HtjkChH4p4YOrhoaZEaJX4MCWBS1sR6TF8uaRJYRfiH3nkkbZixYrqrC9+FTiVofr5mlOY20CSFIQ1hvZFfppo3In4X//a1+yb3/yWnXLKfDvjjA+6u9cwfsl/J+uf7n0Y1oGRnMaTb8tqQfw+GvELf/InUEW1aLimpcDjKgg+AOVTcmny8Mn+rAehmYisEYmjr6f0xVARJ0x0wkxS/Iv/zcURA3G4bad+iWuqbpN7nYC6+2V2nnrKOGbxEFatPsUdiP/jn/zY7rzjTjvkkEPs8k9fbl/+8pfsmmuvsaVLl9q73vWuVz1+W5ronax/uoBRunAzBDmy6uYzx5KNBgkbgwN2nHOUIyYUxhpaZTC8edFqcEY5G5aNOxIHSn6iqBgQh4fO/bpPGur/LsenH08kRgzcFMfJMsv6s2GLOIg4ZYptp+GokwWBTN2djX//fffbY088ZkvPX2ZHHTXbxvBGZMmSZfbf/vsP7d5777XDDj3M/tWFF9oee+4Z2U1u/Oq0UllTYjfR+v1pOq3oT0CR4NHhF7c44kFSnS3EhqEG6WgT6ZJmU6mxgoMBm6el0bvWORE/G1A+Sx40YyD6DL+wch+TGD8xKHGZBb+4Mb5THF01awl+o5CuUpIWnLsbaIjgYYstiQnGf+zRx+zSSy+1vffZx1bduMqOmu0rIB0zs8PffrituGKFzZ492y79+Mftq1/9qgJNVnzhn7k3nj1+R4BJFjd+/dNpRtUKSxrm6BqxYBW/Krnnd25+GXZ9AsGm4nd0+N5Sqx14WxHFcYbG2BjkbGBs1BnFvMdnKYzk0V4UNZxHvkeQMGaTFz+9D44Ihcj99Qc38qjZVXvUwJMnrgjEi/mrBpYAQhyZDrP3ahmnjf/KKy/bbXfcLoyvu+4622///RlIOrJgvPBP/umnn26nn3aarfuz+2z58itw6V5mxx173E7H9wKUFMjMO0fP1aU7Xr+aUbXIMdwUv4WQ7xYaMtgsBJN7AQv16E1h44/p3FMwGppuh4mN0kOEGIMDLwzq6K8RNjLtYiuxBXTyJze+8mS8yKkhlEXJIXLywbnZaKwnU+TojUifqK91QFn6AZH2Yo0T/6GHHrKHH37YFi1aZCeeeKJ88IQfA168avTGGMdxHQ2/PRwUXqE+cu5H7KXf+Knds+4e+xoedC688AKbMWOmEplo/Ey5jl5F2u9q/eqZ6ly4YVoQkYgz53HwmZBQLgQCfNCjIjiGtuYAJ/hcx+ia6mFCTnNgvLHViCNMDY7wH3CCdsBLB5PFL/Gd3uX49BY+m6yUq2dMBWbe3WQCVjZcjq4F/VCQJXb9HtKe+sPiP/f839oVWNVe/oeX7TO33IJGPMl9Rq4Txf/gww61T/zhJ+3dc95ty69Ybl/5yleU4vbie76R9atYv1ZGB01QADemhi/GzmKTB1ZeXkch37oVDSJVWOEM1ZUW/Eg7CDrxy6n7kxM1qPSKMsLlZR8quBNXfH/HqESwAjC+65GzVasow0xO/PAEzwzkQ4cHVtYPUn3p9TOn1Kek3ZipC0nRtcZWpdCqxJXC3+233Wo/efGn9gcX/4Ed9rZfgSc/KelDEIEYv36e1I4/c6XdKfPfg9c/p9jGjRvtk5/8pJ66582bB8lg/A6PGnBCH9zKSgh6Mur3lTG9Iwwx0Aae00WYbI0CJXR4ycV1Nw0krzsWKA3PPq1hMkKMuEUIaiom5/Qt/ygeAFDGADwJRAGJbITJik/Pih85Oc1odauzGl+8KqjKhUq/xbvHqdPQTD2zr3/9a/avP/pR+9XDj7DLL7/cDj3sMBx8XCNw0rMLxtiJ8MIPt/Akznt03qd2v6AHIKmne3XJx/TUffaZC+D7U/bII4/Y5z77Wfv7v/9f/6T1+8qoa8Mg9I6v2i4OUyAOVTUYwUFH8J5Pp4kgpQ4AUKeQhj1PG+gwAuCTjQBlBwMcl7HdXJ+K1PWRgPOe00FVqro3or/JjM+A3uhOJT28ftWHDOo6kVYcmT1rqZvPoj5ZQYcYxZYWP8E7w7vwznDWQQfZH3/+85CyfnobXv8ofPD12Pbwr282eBK5fg+3Qm95y1vtYx+71J588klbvWaN/fqpp9q5556rrDy7167+uEwTitgSlQJowl2BI85MkYdCatphjiK1XJMP7GKCATL6xc0kb7LLpib12Dou2ZjkRwPzMPi66s2sUJDRalLjy6OcMmRDDK/fNVLms9qagUspFdmyYcjGqFo9SIlD1fvuW2ePP/4k3hMusXfNfid0AxuByXrpJ2IF6bcxZLb4Y6oOlnLgjwiBv8eHDi9NijGC+8gT7N3vPsH+8t//pV1yycds6bLz7dT3nEqlyJQZxhZkrZd8ZtfoMnQxYbKY4P949ftlOmJoKIGS6Qc+Z+3IS6ZvNELTaB764YfpYf3SASC4o3iNw0arjZQBwxmbEPp+HCjDyoBB+gwW6iQnNT4dcst0fIb9tutXqkUvDwQtsDV5KnfVAHYYRbVSfPTRR+3jeGe4115723XXXevfNSlOXqP6o/F/+3d+266/4Xr7zne+YzfffIu9+OJPvJ5SZyUmq3732LPmAYYrT9Pb0ckV1WgSwuckmgwWOAOJO9W5K7S8URd+wdwadlupwDNdBs7UZUaGalsF8FUhGlcHxm1oxvgaYT5p8bX+7lj93nBMhnUgMY0gMfXNE82VyPl1/8rLr9htt9+q1eLqa661GTP3lZkaVrciedL6Kc0b87Lg4UxkOAVlIyGI+gnu4yhIJhFXRBC6rQ/cebRz89WKHMd/5ox97aLfvciee26LffZzn7M5c+baksWLoO5Wefx3tf4an+nzCpgbItRzO5k+VnCZDjboqnDWQ6TxpX8Sgqk6MUHhqh3KpYEgIy3ASWhjbH7R1EEWTRehwoFf5IsqDHAmIT6T2qH6Iw1lRAy4acgmwTzPGGUuDS8C84ceetBWXrnC5s+fbxdd9Ht457ePLq18MNmKjuPDylYUz3nSW/nQwoeV3lYbw5sMvWMEDoICuvoHHbehLU97jFu3Spf+aOMPMu6XvumPX+z0Nv7so4+2a3GSzJw50y6++GL7xje+4SUCK8b0neOv6nag/kDDzQI+rIykvFkoYRDJsCu0iLCgEja3YmHUgz31A3xemPNFts46yAkKV0mou20Q2Y/0wXagNz4x6tYScdUgRBUBqMH/CORNTnKS4vu9l7tXpawncnVCXHB8Sx2XuSb3kXEopYdYUcB97m+ft7vuvNOOP/4EW3vTzToxXZk10StxqvWN8H0ri2T9bQpJIwRxqfgTMXHAyzF0KIGdNCI14u+uGJPUYPx/ccYZ9s/f9z67d9064yeDli1bZocfcYQbyo874969iwDpfPKSyvih0Qy4TCthaCIF7lRUaugAMUEXedLyCgY2Lv2ef2MLniPjPl2TLkAhOY2ZmnwBBKGcPsKCfqSHgSLFch0/KLTzUEK40EFgyGjMdXvxdRFLHzTAtr36XUmaSlVYiIkdfLVg8rjwkvwi3hlyJTz00F8JnddH/USIOetJmzX04b/HHnvYhRdcYD944Qd26+232ZHvPBLfxblQZtWWhrENqX/48Q8YEH9UMWXPTNJTjECXPjtbo5OJ69UN0OY/1cSBjVd4PCPBRBe1/vxEQJvApx946tCYX9G2TTzPgx7AhK/JjO+rT6dS5cBonW0gHwfTsWu0+/TW3LTWfvn/ttoffuITaMRDdXLxIspFXx5A6PqRo9h+ReGJWL94WYWF7DBiAi+yHQOTx4Cf3KFv+RdPlGz0vjH87Uz8d7zjCHyPe4W9jPvdm9auRYyJ1a8FxFcRWAQ4PM45Q07NPaP4vuvHFPM+bOWC9xf6iULUzXsR1i9wCRAvtWCBxBcVINMEgGnqoHIiXcJIXXjWfQ3npEPOxAi2cJYDxpi8+PoeJoNwY+DYVDfmg/VTwRWrrHuypQ+OK/HB3WnTp9ln/+iP7KcvvgSHtOUJF3XLCXY8M13kdMh54hERX+25JzaOkd4hMkee7DxJJaMbUpph77lpz6bYyfgv/OC/ognX2J74SNpFv//79sutv1QEBFIsR8Rn7Z5ZFEUoReZVBfWVp+ksSHnKEnrsDoKT82qq0pztRTqIXA1jDo28zPllmDK6dLAEHB3gS3oMjE3x01bhqUBBpAEQQcIX/JGA0AcoId+djb+j9TNyJOsk9szEqxNLOWfuTPZ3f++j9sQTT9kXv/hFO/6E4+2sBQvopKkfJxjLZUFcIb1QOdPJzkoh5AmpqikHpZNcGMU3AWQBCVcGgK4FAisF8R/jUzr94D8/YDHR+P/4f/7R1q271176n//DFi48x/7Z295m00an4Rz29Yyetlc/00qEIgvY1C1WRrhhYgQiZHSu7DXXzCVBcmDjcFRjaHRruYIgb4jdL5WRAoTqO4xqQgiZIOPzH22pLx5j0A/+iUe+gqYNZZMXnzHwXxv9jle/lFKZqv0MzlOukfCP2ry5c201VpZ99t7bVi5fbk8+8aTX+jqof1v4/9Ujf2UrVq6ww99xhL5H/va3/6od+Na32gEHHoD3xt5CE6mfgAQUjpZABhlj+Q6MmkAq3LEVEknOQeuoO0kOGTpbxee9SuhrTmue2WwaaUoqEXfglhVApz8igC8R9rz80EPORYDnzc13YdB1oRvhOwm7Gj+CMTlsE6nfNWWXZ5CbRhMyQcckqRynT5tmC/Ettw984DftjjvvsG99+9v4pPb5eL0zQ07VFKxfhTo2FAgT8Lx+eCMdTomHX3mcqOhBKYRUpVPZ490jbUXTD0WUY8v4zz3/vN1///12NF7x3HD9Dfjc6Sjehc6wGfv6+9BQrkm4sTtzYKqK/IYoaQblFmO5TDvXE/J0kxM8GDDZtM+DL8D0+iFKkUKWQ0j8RSq98SNeeZmWM4UIXjgeA6IEqcby10H8dos3qctSPmnxlUvGzSqdqVhgZUxyk2b8Dl7FNIna2N4gzud+1kGz7FOfusz++q+/ZatXr7b3v//99sEPfUivthxBj69vGPCEQ9DERvGxw4XYjwnuo+sJSmvPix9rJiXsAn965WtF6tCIxwS9qTkXif/9ys9xSV5nv/j5z/EEfaHNOvggfKJ8b71v5KVZZtixhl2pX44QVT0BZ3i1Q4+eCIUsNnacYgswwZeuUo7kVb0be3PKWDayTOQ0EhB6y+8EgEZsfqNfLStfYOCGSLcM5DK3hNuPCKy9uZmLTJiP/lN55+MzL24TrV+pUV9W4+1aDVYaNswZIr5HfO97T7dTf/09du8999qqG260xYvPs3fi1UnWT4T0CScdgG799OgwM05691ryDYaShDPHvxuf93z04fWP2MNf/Q/6xNC/PPNMmzN3jk2fPt32228/23M6foZGpXiMrCrHbSPQagypn7WF3+nsSi8i3EnQGHkGErZp8EbYs/P2GNWZG76oyFNNd9ooEzHcY1gAPXK4eUOR8rnuh/EpHV14hanzpQtSnsD3TzWLq/acrPiexvbrZ94OYrYAk41ck9TIw5zVpoYb18qwKkybrpfJP/zhD+2uu+6ygw8+BB+YWMwCsUEf/3VrwxmCD9bP76LQo+sKf3yXhp3a4k9v+mQ4c6VPfJF45plnbP0D623uvLnGb01y2x9NuA9+xkYb9KialUx2/fSMy7Sy8YDNPp+ECwu5t+DxVOXDiJt7wVWXZysOKOWRvmyprialM8r45VseMnEg43dh9GScS6BMqr7HB1OsyYmfuXDcfv0MrKo6e/mIur3GPHyQpAmbRqbJoMhb9vDDD9ePmf6n//iwXYYPvp7z4Q/rY13U9wc+RcCE+IO5i/X/7Gc/M/6EIV6SGX9c98ADD7R99t0b94UzbBrubcuWKScja8RcpcRe4pTF6HJIstxt1F/uGRvI3CZOe7/XcHfpiwGp72eoJiWOCDxg8fuffivpVv6IAVorKuQgJdEp5gXxgFDgh4Vy/MPHufVpRqSgM5wFyjDkcdMULJftRPzR5pWrfE2gfuKQW4kvBpMFET7I6kzj6KjOMGzxJxof+q3fsjM+eIZ94QtftO9++zt2Hj6ocPAhhxJ1fHHzPc25ceRzreaIy4fLEZz4hJe6wp8mgTe9/AV+7IA/ZXjWWWfascccg0vyHvgBr/1sOr7bEilCHZqJhTzRHz2mhs8ZpnJAiVE5nWmwmUPpW9ClGX0Vc5eti0yE3rsJoFHYCLHRKeVjPGO1KkLAwkGP8LNedK22wmU9ClQc7CTihPrwkXcxnPvq6DJiwhiZa/vZyF2Nnz49AuJpqweCWXbrh4KnK03VEjb04Sc/FGIVqHLagY9ixOsKIKxRuDJdcskl9jQuobfdeqsde9xxdtaZZ6mxGLzUTx8MBduCPz3xGtzg7xX07NHHHsOPHGyw0057L36LxnLlwibk6ybGr9trWz+PuzZ1qCYoQCiTDSGn2gHgoMihjGcbljpgqzUMM39E41yAc6CGPmFCPV4MyAmxXuyCw7eyAM7NqIP7H/4DkPpuDJ8UpYIIpBVTkekdersef8frRw3CzutRUarNAS17ElRhcbnFSpNT4aVJUQ4R5jA74fjj7CZ8tnAm7uFWXnmlPfnUk5BHw3vi3kNcCHjMJCULNGIRO8Z/6aWf2r/948/jA7yP22WXXW5n/OYHcEnexw7Gp8r32Zv3hsPjewH9xx9chWrq2sX6y2+UcMcMixLSP4MpoHZOguUb9MDmzztTyhbxMw8TOUPLYEWUL10/3Afzdfdxz8N4tKUi7PisrTOaQchTDD69094tpQpdrriTGl8RJlp/QKPqS2Y+8zRTIcaov1TRirM21j88PstfePbZ9kF8gua2W/+d/c23v2uLlpxnM2fsp5jbw3/jhk22ectmraxH4lee7IGn5AMOOEBPyw4rk952fAi9NhKxeUW+jyPjOjtZP++u+lxjTv+KQVnIu4PzwfNViWckTEInmyhOHXYqvKSQrgE50OWoVUGx2LGUQbk4ow0Pj8eh3F98g6OOdL4/zzuLOrsWHzEVn448PimRdRCrsj3HWj8k9JEb3AzUL1lwpesGxGS8+PujgS771OX2G+97r9289mb9HPWYXhrCTlcX+vTW5IrIT2wv//RyrKoz7XLYHXXUUWjC/WzWrFloxGle1g7EJyLt5vPJqb/cM6IrHHCtQBnOAWLAZDvH5fqQJgS6WaZAl0voFgM2m1oueqdN3VfGvORmD/JAeIP6CqFFFpDpIDFFAKxPi4NWyEmKr5gl74nVTy3Hw/cxSeMysgaeetoEgRiY+gnJUaF3IP6p+MEpft19zz22Zs1aO+8jH7Ff+7V3lhg/+vGP7IEHHrCDZh1kV119lfEjYPwOz0w8JZeDuQvxPRAz5xa1xZCyHCdcPwx0vImDDkh6aEc2KrsRgzs2AfDCC98Xz3NhJvQSOk6Cw0biAoyzFU93ZfWQInYwkyX1w0XGoIrLIOyLX5VDKY0xlf0OxueBXHnlSoYc3IbUP6g0nJNlERsiwXqGblVxULyd+H/3ox/ZHbffYW+d9Rb8tonFtn79A8b3lWfixTVfFe21J797MqPzlDwQZBfiD/hqGNXt9uuPw+9DpxkFAL0Oh68GaSInSWFuQ83DGkPbeGmicSp+QD8UQDT24JH5z488gm8tfhOfIj8eT8qn4UMM02z//WfaXnpKbtF9feLv1wnmhk0ffOirvVt0LaIsRH364QlDXHroVzOXaN9hNJOGTO0uK2bJzDGVy+iCFOfYJ45pI23I1O2yYpbMHFO5jC5IcY594pg20oZM3S4rZsnMMZVj/MUvfq6fo+FlWT9XDX7nMHXsmklDpssuK2bJzDGVy+iCFOfYJ45plSLHeBKAqN43FbOhRDfUoEp1n7J+Tp0XKokc03TI6CrbVhyU9HPqvFBJ5DgkbrJcZduKg5J+Tp0XKokcM9iQ0VW2rTgo6efUeaGSyHFI3GS5yrYVByX9nDovFAh/mm5Pm3JTRzV+ccPYkK7uK5/LQ0cTf7KqfFI1gLvBXESjmypT8QM6AtSA3pC7K/56n5LFOQqlK5omQuO17ICrtiORGlSo96C8efVNWpi4P8wkSCl1Wj+VnorfAphYJm4cK1ah2TyQvjHwZwVZUd9lui0wyxs+pmZ56AODD79lS4XC6BIdcZkUoqs8ZJaaU/Ed98ShQJUAFUaX6IjLpBBd5SGz1My4ORbVVCiMLpFif9PcyHwFSrELOCs9y0h9W/ZdNmCOrgb9UJAldv0e0p76U/GFAnYVFccrUNuN8WfFpTf0U3wJArnCoxBEScoJU54B0uiqSbfuxhVWtdZ7MSmE9NrZVPxYCYGMbrXzwDSIOtmiNiBsGI1eIQshvXY22fh7M/pel+lOMITfZn3ROK1+U9UA6XpVW1SdFv2W1dJFoRAuHV+nKA9kK7shxi2rpaunpFw6vk7q5klctUXVaVFsWS1dFArh0vF1ivIbon6/TJeng27zeSPmzS/Ljk1k7eNk17HRDab7chuy9PDjTGmkRcOKE2EqvmOTCAEukY5li5eA7KBZOa7nNuS+HvGPe8b+Qplu8vJbWE3ZQTYvZqSfFmrpOnFfMef3qn3L0QU5K2ELMRXfsSkIlRVjd8N/4AEmr8u1l3Jlih5qhvJKULxsmubEDV2BBizpUz+qgLH6T5CDE9Mqn4pfsQhAY9jd8G+akQt3LVu/YUFFd5tFGqkmESb5hBf8tFDLgZdzH9u9o+rmU/Hf7PjXZsRpVte2vjOwmaqVoKu+0w6cfJcjYQMpL8nBKy6qYWFVcykXfhItV/RU/N0SfzSjH+pc8tUr7AKwC51Nl93hYjdtmotkp6XTKZylL79lbNsrnbpG6k3Ff/Phjw91ZBN497VtUn40crzGlEG1LfZyW2bxOca85Y6W6wzVR7bnVPwAyKFxWPpw9bWkYlcQ79Pzw/z6xp+5R8Ug8t4vuyGEqVQKbeQk6cBllepTcZ0BccPIN6h9hqmRY59Y0yqrVL+eJAPihjEVHwdx8AgnQjn248p5lVWqX0+SAXHDAP7ZZ35Z5o82cmt0hs7FHKY4aFpUWwL++QNY27pHnYoPsNq+6D8eBctBwSCnKFfidYp/eYApv5+QKScQuVLmvJbjVHln6E3IfUeVyHDTyF19uGEjplg6oSdeOpmK79AkHgWoIHYz/Fkmjj8GrFT6pHfWibFiwBaJWUOG6s4P6SvHxlOX1cwaslHfOTJ95dh46bKaWUM26jtHpq8cGy9dVjNryEZ958j0lWPjpctqZg3ZqO8cmb5ijJURKxoZZetb4diIKa8d6tripxCsQhaisCon1NJXjlPxA4E3J/7lMp194A3T7Q7xwBpoJvaeVBv9QiZRgW0vzCml17waM4ep+ESholMwAWt3x1+/yoZVstD6MzCcJSBBF1YhiNMOb8UaBBs5o3gGgbiW6ZSERWvYWO1oAq2bqfivL/zxpzfa9QqHVj3Q8rIpvF0y/cHVjIc5tiQ11ocWSt0bBCCq5yqZiu9YJIQtSs4LBKtCrJgDjDhgbxz8cZluiiAOsZUXzoXRwgJmc5Pp8DStlbJY4YokQ/m1HU6SQarSDDkVv4vHwMmbGBMrAtae2il7g+Ff7hnbd36CIV6Ati/CW3hafULRygSMO6FIW2ca3am7yTBs/bmuK03FD4CAYqWIcDnFIdlky0ZOtmufc6wnir9tucnmw+4a2LX+Cv4bl9rIvNX2bLjddvxubhON33/8SzPW308oVyV89/czZrFFXBgOzXN287xpeJGP0virTDAu2OAltNDlE4t4XYH8VRbSLd8VqA9CJWiDTmtDuS++UAidKqewyakrkOvK2tH4g/WPjJxv98Fr9fkqxldZXttE6mex7Q1ZglVyJU7APzx2a6CxC0g1sonHV5wSzH97pzuTD0pIZBTMRXLnSaWERqVgTrTxt5HNs6u34PfqoJDe5jX2d+fMt2u2wKq9ySwN5lZ19dvV+J4nvXqN2BeXTeavWnzWzxMw6icGvbvtPIYep36zzfaZedNtwcaSrAPD5JW21yU3IeEwgH9climjJ+2LSzkSlw2m7ZgV9je9R+36o1JWlF0eP1bvSUzk+HueNJ5Q/IiSxx9/5N7NYkDtmHPS5lddB+VeSkBMXd05xR7FXrPoaVu3ideBkIVuuqcnv0Q4Z1fil7WTrroBXpP4eQj0afYdiE87vzIxbWLPLyKDTbA5dtw7JUnQzqW6/2JCEJykPVWlUi0HxZS5QTc+eH0NXr1kLs5xnyEdDADlajkopiz/lCgTLqUxgZw2ZiSxxeCTMi9t4PxiH1MZbbZbcPafs2mjXYjERk9ag3sRCjbZBfhjNyP4JUW8JI+OLLH7wv57q+aLp8s+ZBrP3+hOacc/GxH82Ws2l2eq7605xW8TdKvgl0k+IH1/NfiMAf6oLp/x2MR4r2L9DhrrPtnWrlnq8ZHD7NWbvf6R4+yKJ3r25wuJy2p7Bvl8b3Vb+/m2Lqo2+3P4qXUfKR/ehvvyHo94sO6CEw15T8maHUNhRfaWNXYycSj1b9KxkT19nHM3tXybwPHP56baP9U2kBaDa6xCYpTbEt/7izz8pCoWzCHbNthDNDf3bp57Uu/qzSHavKY3307qXbWFHiibhjhLevcWy429ZYh75OpnPTTV1p/fpxNpkX/iqt7TsqUd42Rmm3u3wPeC9Zgj5smIsa7ECPuWn2bS8Yn2HX51sA12VShU1iiMhakt3hCwMmccrsXrPSHlgxoCm5uUfziS7PxSQ43vPtCAJaITG3sXpG8yOr439pYSqy1psrl305zpPdxK9Hpb1vROssVxPNy3+KH6lUV7AvPVvafSdCfHmj8ccDLAcBY7NS8K2w6FP3uqDUPHz4BFHIxye3FiNCIVn+3dNG9a76wNjdEDaLB5q3vPkFUcAyweGIKV27OrAZo3sbhqWJ2HfsB1Qo2oqXu9OOh2og509bIBB4U22QDpPMaq2CfAdAfrP2tjdVHdMn63KW6eg7n6CrjNYc1pV2vA/XaNL7zyhExdjtQ/ORqbcx6HqLPFqhwXLACrELg9QeNY+MlOH9hoi+PzdB4cFFPrcZXt7as+/ibueMoQ6mk6F02tobnTDTePNTYs7z7mxUxH33n9+x7+qM2zuIHnr/Qde9RuPDpssTCzFSoeadgu1c4bgY/jjyHN+LgcH7fRfmfL3bYIs/Rm8240AIflPL/G7Hsrj4XGAvuSfnH93TbzvD1xaTpJry7MzrY/5S8s7X3ZZi6ajpLAx4NVVNg4hgtuO1s/TP2vDNBH6xb1U1YWTUxAewaQ4H/eN3oN/CNDX7YZzHV0vr+2UfHup+RNN9rAaZmMnQ8C81YZTng/JsILWF0JgEnDVmZKrumEtv5E3dPMaB522D6dMoci97x9qogKHJQUcfNBcRVWW2WXkmBXvdas2JCAQL2LMbEoASFUuSk452xb9vhVtmD1FndBxQ1r7IrRBfbhYxiBr0rOtX/Y8F/s+qOpEp4W0u5quzpeG1Hy4OKlfl+1Za3dsIl6x9in8ed0b5n7pD29GXPwr9ftJviPPwu/T9kzWwhQ+KSThswiWlZRAHOb9dMPT/Ht1g8F3cPRwKOMxN/IUa6bGOFY5Pq03TT3CXuKt5cLF9gFqjvi20ZbtSqwo5tcNOgP5jj1+FvpbSkwvmqjx6Dag4uWOVaMn0UT08eurnojz9tnVvOlVNrxHn3EziaGYD24ZC8bWbKB7nDMeK/a3Nf6qjPk+Lt6ERCC4h9/JcwFEZD1k+QYW0OC4zP2kpyU4lMbI+zHotnStgZEK/KMk4A7rGI9FnmcjVwV/N4SW9e70o6H9MElc235E7g5x419+rIl623s7oX2pc2r7JRj+aeE6L1nuPxjDcWGJ/i5NwKoc/4vZ4Z7NuudTWIFbjnBXxh8+CGfJ4d8Z9050gRbidvMxq0fepvO5gOGDBDgJLt683fthlzpS/0MBLGwOsYWLJxnV5yLXOastqcfX4mFfy8bRa46eRd7rlzd70Ld849NPIgVHzLK22759LMBuSuHBfanwgoPiPDGja+e/DGQyOV6hGOxYQnwibmdZGtWn2e2PmPR0rHmL/mXr6yRImw5TUxz7nFzRsUKcuoyNWqoXk54yeM02SAq7UegiiFJTamVWZfrsrovUhFlVhU6fsj2FHXSBJlVd61zlmPjsiGLVESZDdGgjNtUfB3p1+D4656RcDvo/aNLKNMJ3IplkQesPahpgxLU3DTye5NiDnX3B125SD9FAwT9pK+p+G8G/Hm0SyeoeThTDxQCjPG31NQVCLY5FqtUKIwu0RGXSSG6ykNmqZlxcyyqqVAYXaIjLpNCdJWHzFIz4+ZYVFOhMLpER1wmhegqD5mlZsbNsaimQmF0iY64TArRVR4yS82Mm2NRTYXC6BIpLt+bTrGfgSl2LmelZxmpbyvrVxDlfkl60A++LLHr95D2VJ+KLxSwq6g4XoHabow/Ky69gbdIFQRyhUchwHDlhCnPAGl01aRbd+MKq5pSCe/FpBDSa2dT8XGIAJcwaYFpEHVyXGGj3egVshCvOv488p0HmDZ0SzcZB+nS8XWqVb+25kOMW1ZLV09JuXR8ndTNk6hqi6rTotiyWrooFMKl4+sU5TjNqraoOi2KLauli0IhXDq+TlF+Q8T3y3S5O24vDknnwwfLjk1k7eNk17HRDaavd25DVv+rgbRwPTdyeiq+Y5MIARuRjmWLl6PGfaMbTNdzG7Jej/j/f7A98O+XJyylAAAAAElFTkSuQmCC;" vertex="1" parent="1">
                    <mxGeometry x="590" y="1290" width="163" height="83" as="geometry"/>
                </mxCell>
            </root>
        </mxGraphModel>
    </diagram>
</mxfile>